<?xml version="1.0" encoding="UTF-8"?> <svg xmlns="http://www.w3.org/2000/svg" width="1051" height="480" viewBox="0 0 1051 480" fill="none"> <path d="M146.395 373.813C126.192 323.497 100.271 259.457 100.271 259.457V254.884L53.0038 373.813H146.395ZM185.275 474.828C176.508 450.05 163.167 415.362 150.969 384.868H48.8105L11.4545 474.828H0.399841L107.895 214.478H111.325C111.325 214.478 116.661 231.25 120.855 241.542C154.019 324.26 202.428 438.616 218.057 474.828H185.275Z" fill="black"></path> <path d="M431.9 363.521H460.871L461.251 458.437C436.475 468.728 393.4 478.64 366.717 478.64C300.391 478.64 231.015 435.565 231.015 350.561C231.015 278.517 281.332 215.621 363.668 215.621C401.024 215.621 429.993 224.006 459.727 246.116L450.577 270.512C426.944 233.918 400.261 227.437 369.767 227.437C297.723 227.437 263.416 292.24 263.416 350.561C263.416 423.368 311.445 468.346 375.865 468.346C393.019 468.346 413.603 461.105 431.9 452.717V363.521Z" fill="black"></path> <path d="M640.405 373.813C620.202 323.497 594.282 259.457 594.282 259.457V254.884L547.016 373.813H640.405ZM679.286 474.828C670.52 450.05 657.177 415.362 644.98 384.868H542.821L505.466 474.828H494.412L601.905 214.478H605.336C605.336 214.478 610.673 231.25 614.866 241.542C648.029 324.26 696.438 438.616 712.068 474.828H679.286Z" fill="black"></path> <path d="M753.996 474.827C753.996 452.338 755.139 257.932 754.376 218.29H782.584C782.584 291.476 782.965 402.022 782.965 474.827H753.996Z" fill="black"></path> <path d="M1034.55 429.848C1034.55 407.357 1034.55 257.932 1033.78 218.289H1045.98C1045.98 291.477 1044.46 406.213 1046.36 479.401C1018.92 449.288 855.77 252.215 855.77 252.215L858.438 260.6V474.827H846.24C846.24 454.244 846.622 293.001 846.24 237.731L843.952 218.289H860.344C875.972 239.636 1031.88 423.368 1031.88 423.368L1034.55 429.848Z" fill="black"></path> <path d="M1037.12 48.4258C1020.08 41.5992 990.255 36.6125 959.149 98.2925C949.842 116.759 939.802 133.332 932.122 144.652C914.269 171.679 890.695 183.826 889.069 184.599C889.029 184.626 889.015 184.639 889.002 184.639C888.989 184.652 888.975 184.652 888.975 184.652C877.575 189.799 864.962 192.639 851.709 192.639C834.535 192.639 819.522 188.759 805.749 180.386C817.415 185.679 851.509 191.066 899.589 112.186L913.455 91.3592C917.269 85.6258 920.855 79.7458 924.109 73.6925C931.735 59.4925 953.442 26.3992 989.989 26.5592C1011.12 26.6525 1023.5 35.2525 1037.12 48.4258Z" fill="black"></path> <path d="M752.197 96.3982C752.197 44.6902 793.514 2.77158 844.482 2.77158C895.449 2.77158 936.767 44.6902 936.767 96.3982C936.767 148.106 895.449 190.025 844.482 190.025C793.514 190.025 752.197 148.106 752.197 96.3982Z" stroke="black" stroke-width="4" stroke-miterlimit="10"></path> <path d="M1048.93 85.4074C1048.93 116.761 1023.07 142.177 991.175 142.177C959.277 142.177 933.418 116.761 933.418 85.4074C933.418 54.0541 959.277 28.6381 991.175 28.6381C1023.07 28.6381 1048.93 54.0541 1048.93 85.4074Z" stroke="black" stroke-width="4" stroke-miterlimit="10"></path> <path d="M755.39 149.109C755.39 156.324 761.239 162.173 768.454 162.173C775.67 162.173 781.518 156.324 781.518 149.109C781.518 141.894 775.67 136.045 768.454 136.045C761.239 136.045 755.39 141.894 755.39 149.109Z" fill="black"></path> <path d="M146.395 373.813C126.192 323.497 100.271 259.457 100.271 259.457V254.884L53.0038 373.813H146.395ZM185.275 474.828C176.508 450.05 163.167 415.362 150.969 384.868H48.8105L11.4545 474.828H0.399841L107.895 214.478H111.325C111.325 214.478 116.661 231.25 120.855 241.542C154.019 324.26 202.428 438.616 218.057 474.828H185.275Z" fill="black"></path> <path d="M431.9 363.521H460.871L461.251 458.437C436.475 468.728 393.4 478.64 366.717 478.64C300.391 478.64 231.015 435.565 231.015 350.561C231.015 278.517 281.332 215.621 363.668 215.621C401.024 215.621 429.993 224.006 459.727 246.116L450.577 270.512C426.944 233.918 400.261 227.437 369.767 227.437C297.723 227.437 263.416 292.24 263.416 350.561C263.416 423.368 311.445 468.346 375.865 468.346C393.019 468.346 413.603 461.105 431.9 452.717V363.521Z" fill="black"></path> <path d="M640.405 373.813C620.202 323.497 594.282 259.457 594.282 259.457V254.884L547.016 373.813H640.405ZM679.286 474.828C670.52 450.05 657.177 415.362 644.98 384.868H542.821L505.466 474.828H494.412L601.905 214.478H605.336C605.336 214.478 610.673 231.25 614.866 241.542C648.029 324.26 696.438 438.616 712.068 474.828H679.286Z" fill="black"></path> <path d="M753.996 474.827C753.996 452.338 755.139 257.932 754.376 218.29H782.584C782.584 291.476 782.965 402.022 782.965 474.827H753.996Z" fill="black"></path> <path d="M1034.55 429.848C1034.55 407.357 1034.55 257.932 1033.78 218.289H1045.98C1045.98 291.477 1044.46 406.213 1046.36 479.401C1018.92 449.288 855.77 252.215 855.77 252.215L858.438 260.6V474.827H846.24C846.24 454.244 846.622 293.001 846.24 237.731L843.952 218.289H860.344C875.972 239.636 1031.88 423.368 1031.88 423.368L1034.55 429.848Z" fill="black"></path> <path d="M1037.12 48.4258C1020.08 41.5992 990.255 36.6125 959.149 98.2925C949.842 116.759 939.802 133.332 932.122 144.652C914.269 171.679 890.695 183.826 889.069 184.599C889.029 184.626 889.015 184.639 889.002 184.639C888.989 184.652 888.975 184.652 888.975 184.652C877.575 189.799 864.962 192.639 851.709 192.639C834.535 192.639 819.522 188.759 805.749 180.386C817.415 185.679 851.509 191.066 899.589 112.186L913.455 91.3592C917.269 85.6258 920.855 79.7458 924.109 73.6925C931.735 59.4925 953.442 26.3992 989.989 26.5592C1011.12 26.6525 1023.5 35.2525 1037.12 48.4258Z" fill="black"></path> <path d="M752.197 96.3982C752.197 44.6902 793.514 2.77158 844.482 2.77158C895.449 2.77158 936.767 44.6902 936.767 96.3982C936.767 148.106 895.449 190.025 844.482 190.025C793.514 190.025 752.197 148.106 752.197 96.3982Z" stroke="black" stroke-width="4" stroke-miterlimit="10"></path> <path d="M1048.93 85.4074C1048.93 116.761 1023.07 142.177 991.175 142.177C959.277 142.177 933.418 116.761 933.418 85.4074C933.418 54.0541 959.277 28.6381 991.175 28.6381C1023.07 28.6381 1048.93 54.0541 1048.93 85.4074Z" stroke="black" stroke-width="4" stroke-miterlimit="10"></path> <path d="M755.39 149.109C755.39 156.324 761.239 162.173 768.454 162.173C775.67 162.173 781.518 156.324 781.518 149.109C781.518 141.894 775.67 136.045 768.454 136.045C761.239 136.045 755.39 141.894 755.39 149.109Z" fill="black"></path> </svg> 